<svg width="27px" height="16px" viewBox="0 0 512 512" xmlns="http://www.w3.org/2000/svg">
<polygon class="active-path" points="448 224 448 160 416 160 416 224 352 224 352 256 416 256 416 320 448 320 448 256 512 256 512 224" fill="#bbbec1" data-old_color="#bbbec1" data-original="#000000"/>
<path class="active-path" d="m160 224v64h90.528c-13.216 37.248-48.8 64-90.528 64-52.928 0-96-43.072-96-96s43.072-96 96-96c22.944 0 45.024 8.224 62.176 23.168l42.048-48.256c-28.8-25.088-65.792-38.912-104.22-38.912-88.224 0-160 71.776-160 160s71.776 160 160 160 160-71.776 160-160v-32h-160z" fill="#bbbec1" data-old_color="#bbbec1" data-original="#000000"/>
</svg>
